<?xml version="1.0" ?><svg height="64px" version="1.1" viewBox="0 0 64 64" width="64px" xmlns="http://www.w3.org/2000/svg" xmlns:xlink="http://www.w3.org/1999/xlink"><title/><desc/><g fill="none" fill-rule="evenodd" id="Menu" stroke="none" stroke-width="1"><g fill="#000000" id="Group" transform="translate(13.000000, 19.000000)"><path d="M2.5,0 L34.5,0 C35.8807119,0 37,1.11928813 37,2.5 C37,3.88071187 35.8807119,5 34.5,5 L2.5,5 C1.11928813,5 0,3.88071187 0,2.5 C0,1.11928813 1.11928813,0 2.5,0 Z" id="Rectangle"/><path d="M2.5,10 L34.5,10 C35.8807119,10 37,11.1192881 37,12.5 C37,13.8807119 35.8807119,15 34.5,15 L2.5,15 C1.11928813,15 0,13.8807119 0,12.5 C0,11.1192881 1.11928813,10 2.5,10 Z" id="Rectangle"/><path d="M2.5,20 L34.5,20 C35.8807119,20 37,21.1192881 37,22.5 C37,23.8807119 35.8807119,25 34.5,25 L2.5,25 C1.11928813,25 0,23.8807119 0,22.5 C0,21.1192881 1.11928813,20 2.5,20 Z" id="Rectangle"/></g></g></svg>